<svg id="visual" viewBox="0 0 960 540" width="960" height="540" xmlns="http://www.w3.org/2000/svg" xmlns:xlink="http://www.w3.org/1999/xlink" version="1.1"><rect x="0" y="0" width="960" height="540" fill="#931C1C"></rect><path d="M0 401L137 381L274 361L411 365L549 358L686 372L823 322L960 339L960 541L823 541L686 541L549 541L411 541L274 541L137 541L0 541Z" fill="#871400"></path><path d="M0 388L137 379L274 429L411 372L549 428L686 392L823 420L960 389L960 541L823 541L686 541L549 541L411 541L274 541L137 541L0 541Z" fill="#cc4f08"></path><path d="M0 417L137 456L274 425L411 454L549 409L686 439L823 432L960 414L960 541L823 541L686 541L549 541L411 541L274 541L137 541L0 541Z" fill="#f5730a"></path><path d="M0 473L137 481L274 468L411 442L549 473L686 453L823 442L960 438L960 541L823 541L686 541L549 541L411 541L274 541L137 541L0 541Z" fill="#cc4f08"></path><path d="M0 499L137 499L274 491L411 508L549 474L686 484L823 479L960 472L960 541L823 541L686 541L549 541L411 541L274 541L137 541L0 541Z" fill="#871400"></path></svg>